<?xml version="1.0" standalone="no"?>
<!DOCTYPE svg PUBLIC "-//W3C//DTD SVG 20010904//EN"
 "http://www.w3.org/TR/2001/REC-SVG-20010904/DTD/svg10.dtd">
<svg version="1.0" xmlns="http://www.w3.org/2000/svg"
 width="250.000000pt" height="250.000000pt" viewBox="0 0 250.000000 250.000000"
 preserveAspectRatio="xMidYMid meet">
<metadata>
Created by potrace 1.14, written by Peter Selinger 2001-2017
</metadata>
<g transform="translate(0.000000,250.000000) scale(0.100000,-0.100000)"
fill="#000000" stroke="none">
<path d="M1138 2490 c-47 -5 -112 -14 -143 -20 -123 -26 -300 -95 -288 -113 3
-5 1 -7 -5 -3 -14 9 -83 -25 -75 -37 3 -6 1 -7 -5 -3 -19 11 -154 -88 -248
-183 -98 -97 -147 -163 -138 -184 3 -8 1 -18 -5 -22 -7 -3 -8 0 -5 9 11 28 -4
17 -26 -19 -12 -19 -18 -40 -14 -46 4 -8 3 -9 -4 -5 -23 14 -110 -196 -148
-359 -29 -121 -26 -396 4 -520 62 -247 167 -438 333 -604 400 -400 1023 -481
1506 -195 243 144 440 378 534 635 84 230 101 500 44 724 -24 94 -66 205 -76
199 -5 -3 -6 2 -3 10 8 20 -10 49 -30 52 -12 2 -15 -3 -11 -17 5 -15 3 -18
-12 -12 -16 6 -16 5 -4 -10 8 -10 9 -17 3 -17 -6 0 -14 5 -17 10 -3 6 -12 10
-18 10 -7 0 -6 -4 3 -10 15 -9 13 -11 -12 -14 -7 0 -14 -11 -14 -24 -1 -15 3
-21 12 -18 8 3 11 0 8 -8 -3 -8 4 -16 16 -19 21 -5 22 0 2 53 -5 13 -4 13 10
0 8 -8 13 -21 10 -29 -4 -10 -1 -12 8 -6 9 5 11 4 6 -4 -11 -18 4 -53 20 -47
8 3 14 0 14 -5 0 -6 -9 -9 -20 -6 -11 3 -23 0 -27 -6 -4 -7 -9 -3 -14 9 -7 18
-8 18 -8 0 -1 -12 -6 -16 -16 -12 -8 3 -15 0 -15 -6 0 -6 -7 -20 -17 -30 -9
-10 -11 -18 -5 -18 6 0 12 6 14 12 3 8 9 5 16 -9 13 -23 7 -53 -10 -53 -6 0
-5 -6 2 -15 10 -12 10 -15 0 -15 -8 0 -10 -7 -5 -17 4 -10 8 -25 9 -33 2 -8
11 -15 22 -15 21 0 42 -37 24 -43 -5 -2 -7 -9 -3 -15 4 -6 0 -8 -10 -4 -9 3
-19 2 -22 -3 -4 -6 -1 -10 5 -10 6 0 8 -5 5 -10 -4 -6 -3 -10 2 -9 20 4 24 -2
12 -18 -13 -15 -12 -15 10 -4 16 9 21 9 16 2 -4 -7 -1 -18 5 -26 7 -9 9 -22 5
-32 -4 -10 -8 -27 -9 -37 -1 -20 -50 -41 -69 -29 -7 4 -8 -1 -3 -13 20 -47 18
-51 -13 -51 -16 0 -28 4 -25 9 6 9 -8 11 -30 2 -10 -4 -16 -18 -16 -38 0 -18
-6 -38 -12 -46 -7 -8 -4 -7 7 2 14 12 25 14 37 7 11 -6 19 -5 24 2 4 8 3 9 -4
5 -8 -5 -12 1 -12 15 0 18 2 19 15 9 13 -11 14 -10 10 1 -4 10 1 15 14 15 13
0 17 -4 11 -11 -6 -7 -5 -16 2 -23 8 -8 7 -15 -4 -26 -9 -8 -18 -13 -20 -10
-3 3 -3 -6 -1 -19 3 -14 -2 -38 -11 -53 -15 -27 -16 -27 -10 -4 6 22 5 23 -10
11 -14 -12 -16 -12 -11 2 9 22 -9 28 -34 11 -20 -14 -21 -41 0 -29 5 3 6 -1 3
-9 -3 -9 -10 -14 -16 -13 -6 1 -11 -10 -13 -24 -4 -33 25 -33 55 2 16 18 19
19 11 4 -37 -78 -175 -126 -263 -90 -24 9 -50 22 -58 29 -50 43 -334 126 -500
147 -104 13 -340 4 -423 -16 -38 -9 -91 -17 -119 -19 -29 -1 -53 -8 -59 -17
-5 -8 -9 -10 -9 -5 0 5 -8 2 -17 -6 -21 -18 -90 -42 -115 -40 -10 0 -18 -3
-18 -9 0 -5 -9 -9 -20 -9 -11 0 -20 4 -20 10 0 5 -7 7 -15 4 -8 -4 -12 -10 -9
-15 3 -5 0 -9 -5 -9 -6 0 -11 5 -11 11 0 5 -5 7 -10 4 -6 -3 -10 -2 -10 4 0 5
-20 8 -45 7 -24 -1 -42 0 -40 3 3 2 -3 13 -12 23 -15 16 -15 21 -3 28 8 5 12
11 9 15 -3 3 -18 -6 -32 -19 -14 -13 -28 -21 -31 -18 -3 3 4 12 15 20 17 12
20 22 16 53 -3 22 -2 39 1 39 17 -1 29 -17 27 -37 -1 -16 4 -23 17 -23 10 0
18 7 18 16 0 13 3 14 14 5 11 -9 20 -10 36 -1 28 15 22 46 -8 42 -12 -2 -22 1
-22 6 0 5 15 8 34 7 24 0 32 3 26 10 -6 7 -2 11 11 11 11 0 18 -5 15 -12 -3
-8 2 -9 20 0 25 11 41 36 23 36 -5 0 -14 11 -19 25 -5 14 -14 25 -19 25 -14 0
0 -41 15 -47 15 -5 19 -23 6 -23 -12 0 -44 59 -37 70 3 5 -2 22 -12 37 -10 15
-12 24 -6 20 7 -5 18 -5 24 -1 8 4 3 12 -12 20 -25 14 -16 18 29 14 12 -1 22
4 22 12 0 18 66 61 81 52 7 -4 9 -3 5 4 -3 6 9 35 27 64 63 99 80 165 53 203
-7 11 -23 52 -35 90 -12 39 -32 84 -44 102 -32 46 -99 75 -169 71 -31 -2 -54
-6 -52 -9 2 -4 -10 -13 -28 -20 -17 -7 -42 -23 -56 -36 -25 -23 -47 -24 -24
-1 16 16 15 39 0 35 -26 -5 -36 -23 -34 -62 2 -29 -8 -61 -36 -117 -21 -43
-38 -85 -38 -94 0 -9 -7 -14 -18 -12 -10 2 -17 12 -16 26 0 17 -4 21 -18 16
-10 -3 -18 -1 -18 5 0 6 5 11 12 11 6 0 9 3 6 6 -9 8 -49 -16 -43 -25 3 -5 -2
-11 -10 -14 -10 -4 -12 -1 -8 10 5 13 2 15 -11 10 -11 -4 -15 -3 -11 4 4 6 13
8 21 5 12 -5 18 5 16 25 -1 3 10 5 23 3 16 -1 25 3 25 12 0 8 -4 14 -10 14 -5
0 -10 3 -10 8 0 11 54 9 62 -3 5 -6 8 -3 8 7 0 9 -6 19 -13 21 -9 4 -9 6 1 6
6 1 12 7 12 15 0 10 8 13 23 11 18 -4 23 0 24 17 2 16 -1 18 -10 9 -17 -17
-31 -13 -16 6 10 12 11 17 2 20 -7 2 -9 11 -6 20 4 11 2 14 -5 9 -24 -15 -12
42 16 69 15 16 21 25 14 21 -11 -7 -12 -4 -3 11 6 11 7 24 3 29 -4 5 2 2 13
-6 11 -8 23 -19 27 -25 11 -15 9 4 -2 26 -8 15 -7 19 5 19 21 0 19 16 -5 33
-19 13 -19 14 5 47 13 18 22 38 18 44 -4 7 -1 7 7 -1 7 -6 20 -9 29 -6 13 4
14 3 1 -5 -8 -6 -17 -9 -21 -6 -4 2 -10 -5 -14 -16 -3 -11 -11 -20 -16 -20 -5
0 -9 -7 -9 -15 0 -18 16 -20 23 -2 4 10 6 10 6 0 1 -7 6 -13 12 -13 6 0 8 9 4
21 -5 14 -3 19 3 15 6 -3 13 0 15 6 3 7 6 3 6 -8 1 -25 -23 -49 -38 -39 -7 3
-8 0 -5 -9 5 -14 9 -13 30 1 13 8 24 23 24 33 0 10 6 21 13 23 9 4 8 8 -3 16
-13 9 -13 11 1 11 9 0 24 9 34 20 10 11 13 20 7 20 -7 0 -12 -5 -12 -11 0 -5
-4 -7 -10 -4 -5 3 -10 1 -10 -5 0 -6 -4 -9 -9 -6 -5 3 -7 15 -4 27 4 13 8 16
13 10 11 -19 40 -1 40 24 0 27 21 37 70 31 37 -4 60 1 60 15 0 4 -6 6 -13 3
-8 -3 -13 3 -13 16 0 11 6 20 13 20 17 0 17 17 1 24 -7 3 -3 3 9 0 17 -4 22 0
25 18 2 13 9 23 17 23 8 0 16 6 19 14 3 8 0 11 -5 8 -25 -15 -71 -16 -77 -2
-3 8 0 15 7 16 54 3 91 23 80 43 -3 6 0 5 8 -3 11 -10 11 -15 2 -18 -27 -10
-11 -23 22 -20 20 3 38 0 41 -5 3 -4 2 -8 -3 -7 -4 1 -17 1 -28 0 -15 -1 -17
-3 -7 -10 11 -7 11 -9 -2 -14 -9 -4 -16 -16 -16 -27 0 -23 -10 -26 -28 -8 -9
9 -12 9 -12 0 0 -7 5 -12 11 -12 6 0 9 -7 6 -14 -4 -10 -1 -13 8 -10 8 3 17
14 20 25 6 17 8 17 21 4 9 -8 12 -21 8 -27 -6 -10 -4 -11 7 0 20 18 34 15 18
-5 -10 -11 -10 -14 -1 -9 7 4 12 2 12 -8 0 -8 -5 -16 -12 -18 -8 -3 -8 -9 0
-24 6 -10 12 -14 12 -7 0 7 7 10 18 7 15 -5 15 -4 1 5 -11 7 -15 19 -11 37 6
31 28 41 53 26 25 -16 29 -15 30 6 0 10 3 12 6 5 2 -7 13 -13 24 -13 17 0 16
-3 -9 -28 -33 -32 -39 -62 -10 -54 12 3 18 0 16 -9 -2 -8 4 -13 13 -11 23 3
17 -40 -7 -49 -18 -7 -17 -8 3 -8 12 -1 23 -6 25 -13 3 -9 6 -9 12 0 4 7 2 12
-5 12 -8 0 -7 5 2 17 10 12 11 17 2 20 -7 2 -9 11 -6 19 3 7 10 11 16 7 6 -3
7 -1 3 5 -4 7 -17 12 -29 13 -12 0 -16 3 -9 6 19 7 14 23 -5 17 -15 -5 -15 -4
1 6 14 10 20 10 26 0 5 -9 12 -6 23 11 14 19 19 20 32 9 12 -10 15 -10 15 2 0
18 38 50 51 42 6 -3 13 3 16 14 3 13 10 19 20 15 12 -5 12 -2 -2 15 -19 21
-42 20 -62 -5 -10 -12 -15 -12 -42 2 -35 17 -35 18 -20 47 8 14 8 23 0 31 -8
8 -11 8 -11 0 0 -6 -11 -10 -25 -9 -17 1 -23 6 -20 14 3 8 5 20 5 27 0 8 8 21
17 31 13 12 14 19 5 22 -15 5 10 32 30 32 9 -1 8 -4 -3 -13 -14 -11 -15 -14
-2 -26 11 -10 17 -11 22 -3 5 8 12 5 21 -8 8 -11 20 -20 26 -20 10 0 14 -19
15 -74 0 -20 9 -16 13 6 3 20 16 38 28 38 7 0 6 -6 -2 -15 -11 -13 -8 -15 19
-15 17 0 31 -4 31 -10 0 -5 7 -10 16 -10 8 0 13 4 9 9 -8 14 15 25 27 13 6 -6
6 -12 -1 -16 -6 -4 -11 -12 -11 -18 0 -6 7 -5 17 3 11 10 14 10 9 2 -4 -8 -1
-13 8 -13 9 0 16 -5 16 -11 0 -6 9 -8 20 -4 12 4 20 2 20 -5 0 -6 5 -8 10 -5
7 4 6 13 -1 27 -9 18 -8 19 10 13 12 -4 21 -2 21 4 0 6 8 11 18 11 14 0 14 -2
3 -9 -8 -5 -15 -21 -17 -36 -2 -20 0 -24 10 -16 9 7 17 3 30 -14 11 -14 25
-25 32 -25 8 0 14 -5 14 -11 0 -5 5 -7 10 -4 6 4 7 11 3 18 -21 34 1 92 31 81
7 -3 16 2 20 12 5 13 9 14 21 4 9 -8 12 -17 6 -24 -10 -14 -11 -47 0 -40 5 2
6 11 3 19 -4 8 1 18 10 21 20 8 21 24 1 24 -9 0 -18 7 -22 16 -6 16 -7 16 -18
0 -12 -15 -13 -15 -26 0 -12 15 -11 19 9 32 32 21 27 29 -14 24 -28 -3 -39 0
-50 17 -8 11 -21 21 -27 21 -7 0 -19 5 -27 10 -12 8 -13 12 -2 19 11 7 11 9
-2 14 -9 4 -16 2 -16 -2 0 -5 -6 -11 -14 -14 -10 -4 -13 2 -12 19 1 22 4 24
26 19 14 -4 43 -8 66 -8 22 -1 49 -9 60 -17 18 -14 18 -14 5 3 -11 14 -11 17
2 17 8 0 20 -7 27 -15 10 -12 16 -13 26 -4 9 7 14 8 14 1 0 -5 9 -12 20 -15
23 -6 39 -39 22 -45 -7 -2 -9 -9 -5 -14 4 -7 -2 -9 -17 -5 -22 6 -22 5 -7 -11
16 -15 18 -15 30 2 13 17 14 18 20 2 4 -10 12 -14 17 -11 8 5 7 11 -1 21 -10
12 -8 13 7 8 18 -7 18 -7 2 13 -28 31 -21 37 13 12 18 -12 26 -24 20 -28 -6
-4 -6 -12 -1 -20 4 -8 6 -20 3 -27 -6 -17 16 -29 30 -14 9 9 8 14 -5 24 -16
12 -21 66 -5 66 4 0 7 -4 7 -10 0 -5 4 -10 8 -10 4 0 8 9 8 20 0 11 -3 20 -7
20 -4 0 -15 3 -23 6 -12 5 -15 2 -10 -10 8 -20 -9 -21 -26 -1 -10 12 -10 15 1
16 16 1 -70 26 -116 33 -108 19 -236 24 -337 16z m37 -30 c-3 -5 -12 -10 -18
-10 -7 0 -6 4 3 10 19 12 23 12 15 0z m57 -16 c-12 -8 -27 -12 -33 -8 -14 8 8
24 36 24 18 0 18 -1 -3 -16z m-338 -36 c-16 -30 -17 -31 -30 -13 -12 16 -18
14 -16 -5 0 -3 -8 -6 -18 -7 -13 -1 -17 3 -13 13 5 14 21 18 57 14 10 -1 15 3
12 8 -5 9 2 16 22 21 1 1 -5 -13 -14 -31z m309 -48 c3 -11 -2 -24 -12 -32 -13
-10 -14 -10 -4 2 8 9 9 19 2 32 -6 10 -6 18 -1 18 6 0 12 -9 15 -20z m47 0 c0
-5 -6 -10 -12 -10 -8 0 -9 -3 -3 -8 16 -11 15 -72 -1 -72 -16 0 -19 16 -4 25
6 4 6 15 0 31 -14 35 -12 44 5 44 8 0 15 -4 15 -10z m40 6 c0 -3 -4 -8 -10
-11 -5 -3 -10 -1 -10 4 0 6 5 11 10 11 6 0 10 -2 10 -4z m-400 -10 c0 -3 -4
-8 -10 -11 -5 -3 -10 -1 -10 4 0 6 5 11 10 11 6 0 10 -2 10 -4z m240 -17 c0
-5 5 -7 12 -3 6 4 8 3 5 -3 -4 -6 -18 -8 -33 -5 -19 3 -22 7 -12 13 18 12 28
11 28 -2z m186 -11 c5 -7 3 -8 -6 -3 -7 4 -16 2 -21 -6 -4 -7 -11 -10 -14 -7
-10 10 4 28 20 28 8 0 17 -5 21 -12z m-478 -6 c14 12 14 11 1 -10 -8 -12 -15
-18 -17 -12 -2 6 -8 8 -13 4 -11 -6 -12 9 -2 20 4 4 9 2 11 -4 3 -7 9 -7 20 2z
m39 -24 c2 -29 1 -31 -14 -15 -13 13 -14 19 -3 31 16 20 15 21 17 -16z m523 2
c0 -5 -8 -10 -17 -10 -15 0 -16 2 -3 10 19 12 20 12 20 0z m-464 -57 c-7 -7
-26 7 -26 19 0 6 6 6 15 -2 9 -7 13 -15 11 -17z m-176 -18 c0 -11 -29 -11 -33
-1 -4 10 1 12 14 9 10 -3 19 -7 19 -8z m177 -51 c-3 -3 -12 -4 -19 -1 -8 3 -5
6 6 6 11 1 17 -2 13 -5z m-620 -239 c0 -8 -4 -12 -9 -9 -5 3 -6 10 -3 15 9 13
12 11 12 -6z m-66 -66 c-7 -17 -10 -19 -10 -6 -1 9 -5 17 -11 17 -5 0 -10 5
-10 11 0 8 6 7 17 -2 15 -12 16 -12 9 6 -5 14 -4 17 4 9 7 -7 7 -18 1 -35z
m-17 -136 c-6 -22 -4 -25 10 -20 9 4 14 3 11 -2 -3 -6 -14 -9 -24 -8 -16 1
-17 5 -10 25 7 19 5 28 -8 39 -16 13 -16 13 5 3 18 -9 21 -16 16 -37z m252 -6
c-75 -48 -121 -116 -132 -195 -3 -29 -11 -52 -16 -52 -21 0 10 110 49 172 22
36 86 87 108 87 6 0 2 -6 -9 -12z m117 -45 c36 -31 60 -99 52 -148 -3 -24 -11
-44 -16 -44 -6 0 -8 -4 -4 -10 3 -5 -7 -8 -25 -7 -29 2 -42 21 -19 29 7 2 8
14 1 38 -9 32 -10 33 -11 8 -1 -19 -5 -26 -15 -22 -8 3 -12 13 -9 25 3 11 0
19 -7 19 -7 0 -9 9 -6 23 3 12 3 16 0 10 -8 -17 -28 -17 -21 0 3 9 -2 13 -16
11 -12 -1 -28 -3 -35 -3 -7 -1 -10 -6 -7 -11 4 -6 -4 -5 -19 1 -27 13 -25 21
11 66 36 45 105 52 146 15z m-405 -7 c-3 -3 -9 2 -12 12 -6 14 -5 15 5 6 7 -7
10 -15 7 -18z m-23 5 c9 -15 -4 -47 -22 -54 -14 -6 -14 -4 0 17 12 18 13 27 4
36 -8 8 -8 11 0 11 7 0 15 -5 18 -10z m2208 -10 c3 -11 3 -20 1 -20 -2 0 -8 9
-14 20 -6 11 -7 20 -2 20 6 0 12 -9 15 -20z m-2258 0 c-3 -5 -12 -10 -18 -10
-7 0 -6 4 3 10 19 12 23 12 15 0z m2245 -79 c0 -5 -13 -11 -30 -13 -16 -3 -30
-1 -30 3 0 4 12 10 28 12 15 2 28 5 30 6 1 0 2 -3 2 -8z m13 -35 c4 -10 1 -13
-8 -9 -8 3 -12 9 -9 14 7 12 11 11 17 -5z m-1687 -50 c-4 -25 -16 -55 -27 -68
l-20 -23 16 32 c13 27 21 64 24 107 1 5 4 7 7 3 4 -3 3 -26 0 -51z m1606 -11
c-2 -14 -9 -25 -14 -25 -6 0 -7 7 -4 16 3 9 6 20 6 25 0 5 4 9 9 9 4 0 6 -11
3 -25z m-2162 5 c0 -5 -5 -10 -11 -10 -5 0 -7 5 -4 10 3 6 8 10 11 10 2 0 4
-4 4 -10z m87 -12 c-3 -8 -6 -5 -6 6 -1 11 2 17 5 13 3 -3 4 -12 1 -19z m-17
-43 c0 -14 -3 -25 -7 -25 -5 0 -8 11 -8 25 0 14 3 25 8 25 4 0 7 -11 7 -25z
m144 -15 c4 -25 3 -31 -4 -20 -5 8 -10 26 -10 39 0 32 6 24 14 -19z m280 -46
c-19 -28 -64 -54 -91 -53 -11 0 -6 6 15 15 19 8 46 26 60 39 34 31 37 31 16
-1z m-209 -44 c3 -6 -1 -7 -9 -4 -18 7 -21 14 -7 14 6 0 13 -4 16 -10z m128
-230 c3 -11 1 -18 -4 -14 -5 3 -9 12 -9 20 0 20 7 17 13 -6z m-155 -39 c-9
-16 -16 -17 -31 -9 -16 8 -17 12 -6 19 8 5 22 9 32 9 14 0 15 -3 5 -19z m-58
-15 c0 -2 -7 -7 -16 -10 -8 -3 -12 -2 -9 4 6 10 25 14 25 6z m41 -23 c0 -5 2
-16 4 -25 4 -21 -32 -21 -40 0 -4 10 0 12 11 8 12 -4 15 -2 10 9 -3 8 -1 15 4
15 6 0 10 -3 11 -7z m901 -157 c10 -20 10 -20 -13 1 -19 18 -28 20 -44 11 -20
-11 -20 -11 -1 10 21 24 37 18 58 -22z m-146 -2 c8 -20 13 -38 10 -41 -3 -3
-8 7 -12 21 -5 21 -9 24 -20 15 -10 -8 -14 -8 -14 0 0 6 5 11 11 11 5 0 7 5 4
10 -4 6 -11 7 -17 4 -7 -4 -8 -2 -4 4 13 21 27 13 42 -24z m268 14 c22 -31 20
-36 -9 -30 -29 5 -39 17 -31 37 8 21 22 18 40 -7z m-419 -8 c3 -6 -1 -7 -9 -4
-18 7 -21 14 -7 14 6 0 13 -4 16 -10z m572 -44 c8 -26 12 -51 9 -54 -3 -3 -6
2 -6 11 0 10 -7 17 -16 17 -8 0 -12 -4 -9 -10 3 -5 1 -10 -4 -10 -6 0 -11 5
-11 10 0 6 -5 10 -11 10 -5 0 -7 -5 -3 -12 4 -7 3 -8 -4 -4 -9 5 -9 13 -2 26
15 28 12 38 -5 16 -20 -26 -19 -13 1 25 22 43 44 34 61 -25z m-1112 34 c3 -5
2 -10 -4 -10 -5 0 -13 5 -16 10 -3 6 -2 10 4 10 5 0 13 -4 16 -10z m497 -22
c-8 -8 -9 -4 -5 13 4 13 8 18 11 10 2 -7 -1 -18 -6 -23z m-482 -30 c0 -13 -25
2 -38 23 -13 21 -13 21 12 3 14 -11 26 -22 26 -26z m405 31 c11 -17 2 -18 -19
-3 -17 12 -17 14 -4 14 9 0 20 -5 23 -11z m803 -1 c6 -7 12 -29 15 -48 2 -19
2 -27 0 -18 -3 13 -13 16 -43 13 l-39 -4 16 35 c17 36 34 43 51 22z m-917 -35
c13 -17 13 -17 -6 -3 -11 8 -22 16 -24 17 -2 2 0 3 6 3 6 0 17 -8 24 -17z
m1027 -1 c2 -7 -2 -10 -11 -6 -9 3 -22 -4 -31 -18 -9 -12 -16 -18 -16 -12 0 5
7 20 16 32 16 24 35 25 42 4z m-748 -37 c0 -5 -5 -3 -10 5 -5 8 -10 20 -10 25
0 6 5 3 10 -5 5 -8 10 -19 10 -25z m793 4 c-8 -16 -17 -28 -19 -26 -7 6 18 57
27 57 4 0 1 -14 -8 -31z m68 -2 c-6 -8 -7 -18 -3 -22 4 -5 2 -5 -5 -1 -14 8
-6 36 9 36 7 0 6 -5 -1 -13z m-1188 -74 c-7 -2 -21 -2 -30 0 -10 3 -4 5 12 5
17 0 24 -2 18 -5z m1132 -3 c4 -6 -7 -10 -24 -10 -17 0 -31 5 -31 10 0 6 11
10 24 10 14 0 28 -4 31 -10z m50 -10 c-13 -5 -15 -9 -7 -14 7 -4 12 -12 12
-18 0 -5 -9 0 -19 13 -20 25 -11 42 17 31 13 -4 12 -7 -3 -12z m-1091 1 c4 -5
-3 -7 -14 -4 -23 6 -26 13 -6 13 8 0 17 -4 20 -9z m241 -1 c3 -5 1 -10 -4 -10
-6 0 -11 5 -11 10 0 6 2 10 4 10 3 0 8 -4 11 -10z m125 1 c0 -10 -58 -12 -64
-2 -2 3 11 7 30 8 19 2 34 -1 34 -6z m140 -1 c0 -5 -19 -9 -42 -9 l-43 2 40 7
c22 4 41 8 43 9 1 0 2 -3 2 -9z m130 2 c0 -4 -10 -9 -22 -9 -18 -2 -20 0 -8 7
18 12 30 13 30 2z m320 -6 c0 -8 -5 -18 -12 -22 -7 -4 -8 -3 -4 4 5 8 0 12
-13 12 -12 0 -21 5 -21 10 0 6 11 10 25 10 15 0 25 -6 25 -14z m-252 -3 c-10
-2 -26 -2 -35 0 -10 3 -2 5 17 5 19 0 27 -2 18 -5z m155 0 c-13 -2 -35 -2 -50
0 -16 2 -5 4 22 4 28 0 40 -2 28 -4z m-678 -233 c39 -7 84 -16 100 -20 l30 -8
-35 -1 c-37 -1 -177 33 -188 45 -4 4 0 5 8 2 8 -3 47 -11 85 -18z m512 -17
c-19 -18 -302 -40 -354 -27 -55 14 -14 22 115 23 149 0 219 5 229 15 3 3 9 4
11 1 3 -3 2 -8 -1 -12z"/>
<path d="M1376 883 c-6 -14 -5 -15 5 -6 7 7 10 15 7 18 -3 3 -9 -2 -12 -12z"/>
<path d="M1696 2396 c3 -9 11 -16 16 -16 13 0 5 23 -10 28 -7 2 -10 -2 -6 -12z"/>
<path d="M1747 2373 c-14 -13 -6 -23 11 -14 12 6 23 6 33 -1 11 -8 11 -9 -3
-4 -31 10 -19 -12 12 -22 20 -7 28 -16 24 -25 -6 -18 12 -32 21 -17 4 6 12 8
18 4 7 -3 2 4 -11 15 -13 11 -21 24 -18 29 3 5 -11 16 -30 25 -38 19 -47 20
-57 10z"/>
<path d="M1460 2360 c0 -5 5 -10 11 -10 5 0 7 5 4 10 -3 6 -8 10 -11 10 -2 0
-4 -4 -4 -10z"/>
<path d="M1665 2337 c3 -17 14 -36 23 -43 15 -11 17 -9 20 12 3 20 8 24 25 19
21 -6 21 -6 2 6 -11 7 -22 15 -25 19 -3 4 -15 9 -27 12 -21 6 -22 3 -18 -25z"/>
<path d="M1483 2335 c-10 -11 -6 -18 23 -35 27 -17 33 -27 28 -42 -3 -12 -2
-18 3 -15 6 4 15 -4 21 -17 13 -29 70 -62 100 -58 24 4 31 32 8 32 -9 0 -14 9
-13 20 1 11 5 20 10 20 4 0 5 5 2 10 -3 6 -1 10 5 10 6 0 13 -7 16 -15 5 -12
9 -13 20 -4 8 7 18 9 21 5 4 -4 1 -11 -7 -17 -10 -6 -4 -7 19 -2 32 6 34 5 28
-16 -4 -17 -2 -21 8 -17 10 3 12 0 8 -11 -5 -12 -2 -15 10 -10 9 3 27 2 39 -3
13 -5 19 -9 15 -9 -4 -1 -2 -7 5 -15 7 -7 24 -12 37 -9 17 3 22 0 18 -11 -4
-10 4 -18 25 -25 37 -13 37 -13 40 27 1 17 8 34 15 36 9 4 10 -1 3 -19 -7 -19
-6 -23 8 -20 11 1 16 10 15 24 -4 28 11 27 31 -4 9 -14 25 -25 35 -25 10 0 21
-3 24 -7 11 -10 -13 -33 -34 -33 -11 0 -19 -4 -19 -9 0 -4 10 -8 22 -7 17 1
24 -7 30 -32 7 -24 13 -32 24 -28 9 3 19 6 22 6 4 0 1 4 -7 9 -22 14 -22 39 1
47 11 3 22 3 25 0 4 -3 -1 -6 -10 -6 -10 0 -17 -7 -17 -15 0 -14 19 -19 60
-16 10 0 11 -1 2 -5 -6 -3 -9 -11 -6 -17 5 -8 2 -8 -7 1 -16 15 -29 16 -29 1
0 -5 5 -7 10 -4 6 3 13 -1 16 -10 6 -14 8 -14 25 1 11 9 19 12 19 7 0 -6 -7
-16 -15 -23 -11 -9 -12 -16 -5 -25 6 -7 7 -21 3 -31 -6 -17 -5 -17 10 -5 14
11 18 11 23 -2 3 -9 2 -22 -2 -29 -4 -7 -4 -10 1 -6 4 4 14 3 21 -3 19 -15 38
-1 24 16 -7 8 -9 19 -5 24 10 17 -52 99 -159 209 -60 62 -105 101 -113 97 -8
-2 -11 -1 -8 4 3 5 1 12 -5 16 -19 12 -23 -26 -4 -40 19 -14 8 -21 -12 -7 -15
10 -25 42 -14 42 25 0 5 23 -46 56 -52 33 -83 42 -50 15 8 -7 12 -19 9 -27 -3
-7 2 -17 11 -20 27 -10 18 -24 -14 -20 -16 2 -30 0 -30 -3 0 -4 -17 -5 -37 -3
-26 3 -32 7 -20 11 16 6 16 8 1 26 -15 19 -15 19 -10 1 6 -16 4 -17 -9 -6 -13
11 -15 10 -10 -1 4 -10 -2 -15 -15 -16 -11 -1 -20 2 -20 5 0 4 -9 8 -20 9 -11
1 -34 8 -50 16 -27 14 -30 14 -35 -4 -4 -10 -4 -23 0 -28 3 -5 1 -12 -5 -16
-5 -3 -10 -1 -10 4 0 6 -4 11 -10 11 -5 0 -10 -7 -10 -16 0 -8 -5 -12 -10 -9
-6 4 -2 18 10 36 22 31 19 59 -5 39 -10 -8 -20 -3 -43 20 -34 33 -42 35 -59
15z m32 -15 c3 -5 1 -10 -4 -10 -6 0 -11 5 -11 10 0 6 2 10 4 10 3 0 8 -4 11
-10z m360 -109 c-3 -6 -11 -8 -17 -5 -6 4 -5 9 3 15 16 10 23 4 14 -10z m59
-28 c4 -10 4 -14 0 -10 -4 4 -13 2 -21 -4 -10 -9 -13 -7 -13 7 0 16 -2 17 -10
4 -5 -8 -10 -10 -10 -4 0 28 44 34 54 7z m19 -58 c-3 -9 -8 -14 -10 -11 -3 3
-2 9 2 15 9 16 15 13 8 -4z m307 -181 c0 -8 -4 -12 -10 -9 -5 3 -10 13 -10 21
0 8 5 12 10 9 6 -3 10 -13 10 -21z"/>
<path d="M982 2289 c2 -7 10 -15 17 -17 8 -3 12 1 9 9 -2 7 -10 15 -17 17 -8
3 -12 -1 -9 -9z"/>
<path d="M1074 2289 c-3 -6 -2 -15 4 -21 6 -6 12 -6 16 1 4 6 4 11 -1 11 -4 0
-1 5 7 10 13 8 13 10 -2 10 -9 0 -20 -5 -24 -11z"/>
<path d="M957 2284 c-11 -11 -8 -26 3 -19 6 3 10 1 10 -6 0 -7 3 -10 6 -6 3 3
2 13 -3 22 -5 8 -12 12 -16 9z"/>
<path d="M1495 2270 c-3 -5 1 -10 9 -10 9 0 16 5 16 10 0 6 -4 10 -9 10 -6 0
-13 -4 -16 -10z"/>
<path d="M1121 2231 c-7 -5 -9 -11 -5 -14 5 -3 15 1 22 9 14 16 5 18 -17 5z"/>
<path d="M1403 2200 c0 -34 17 -39 38 -12 13 15 12 16 -4 3 -15 -12 -17 -12
-12 1 3 8 0 20 -8 26 -11 10 -14 6 -14 -18z"/>
<path d="M1480 2216 c0 -8 7 -17 16 -20 8 -3 12 -2 9 4 -12 19 14 10 35 -12
20 -22 20 -22 20 -1 0 26 -17 39 -52 41 -18 1 -28 -3 -28 -12z"/>
<path d="M627 2193 c-4 -3 -7 -11 -7 -17 0 -6 5 -5 12 2 6 6 9 14 7 17 -3 3
-9 2 -12 -2z"/>
<path d="M1800 2163 c0 -5 9 -19 19 -32 12 -16 21 -20 25 -12 4 6 3 11 -3 11
-5 0 -13 9 -16 20 -6 19 -25 29 -25 13z"/>
<path d="M952 2136 c-8 -17 -8 -27 -1 -32 18 -11 33 13 23 37 -10 21 -10 21
-22 -5z"/>
<path d="M1638 2136 c-3 -14 -2 -25 1 -24 27 3 31 -3 20 -24 -12 -22 -11 -23
8 -5 20 17 29 67 13 67 -5 0 -15 3 -23 6 -10 3 -16 -3 -19 -20z"/>
<path d="M1710 2149 c0 -5 5 -7 10 -4 6 3 10 8 10 11 0 2 -4 4 -10 4 -5 0 -10
-5 -10 -11z"/>
<path d="M1740 2156 c0 -2 7 -6 15 -10 8 -3 15 -1 15 4 0 6 -7 10 -15 10 -8 0
-15 -2 -15 -4z"/>
<path d="M707 2132 c1 -8 3 -16 3 -18 0 -3 5 -2 12 2 8 5 9 2 5 -9 -3 -10 -2
-17 3 -17 6 0 10 9 10 20 0 11 -6 20 -14 20 -8 0 -16 3 -19 8 -2 4 -2 1 0 -6z"/>
<path d="M1610 2139 c0 -5 5 -7 10 -4 6 3 10 8 10 11 0 2 -4 4 -10 4 -5 0 -10
-5 -10 -11z"/>
<path d="M625 2131 c-2 -5 4 -11 15 -14 11 -3 20 -2 20 3 0 12 -28 21 -35 11z"/>
<path d="M1522 2118 c2 -26 16 -48 30 -48 6 0 6 6 -1 14 -6 8 -11 18 -10 22 3
19 -1 34 -10 34 -6 0 -9 -10 -9 -22z"/>
<path d="M590 2120 c0 -5 5 -10 11 -10 5 0 7 5 4 10 -3 6 -8 10 -11 10 -2 0
-4 -4 -4 -10z"/>
<path d="M816 2114 c-8 -20 -8 -24 2 -24 4 0 8 9 9 20 2 24 -3 26 -11 4z"/>
<path d="M1590 2120 c0 -5 5 -10 11 -10 5 0 7 5 4 10 -3 6 -8 10 -11 10 -2 0
-4 -4 -4 -10z"/>
<path d="M523 2104 c-3 -8 -12 -13 -19 -10 -8 3 -14 1 -14 -4 0 -6 10 -10 23
-10 16 0 23 6 24 20 2 24 -5 26 -14 4z"/>
<path d="M550 2109 c0 -5 5 -7 10 -4 6 3 10 8 10 11 0 2 -4 4 -10 4 -5 0 -10
-5 -10 -11z"/>
<path d="M2055 2104 c9 -9 19 -13 23 -10 3 4 0 11 -8 16 -24 15 -33 11 -15 -6z"/>
<path d="M1413 2095 c0 -8 4 -15 9 -15 4 0 8 7 8 15 0 8 -4 15 -8 15 -5 0 -9
-7 -9 -15z"/>
<path d="M1566 2101 c-3 -5 1 -11 9 -14 9 -4 12 -1 8 9 -6 16 -10 17 -17 5z"/>
<path d="M1982 2089 c-8 -12 -8 -19 -2 -19 5 0 10 5 10 11 0 5 4 8 9 4 5 -3
12 -1 15 4 3 5 0 11 -7 14 -8 3 -19 -4 -25 -14z"/>
<path d="M1466 2085 c-11 -8 -17 -17 -14 -20 3 -3 11 1 18 10 16 19 30 19 30
0 0 -8 7 -15 17 -15 14 0 14 2 -2 20 -21 24 -24 24 -49 5z"/>
<path d="M1630 2089 c0 -5 5 -7 10 -4 6 3 10 8 10 11 0 2 -4 4 -10 4 -5 0 -10
-5 -10 -11z"/>
<path d="M630 2059 c0 -5 5 -7 10 -4 6 3 10 8 10 11 0 2 -4 4 -10 4 -5 0 -10
-5 -10 -11z"/>
<path d="M1425 2060 c-3 -5 -1 -10 4 -10 6 0 11 5 11 10 0 6 -2 10 -4 10 -3 0
-8 -4 -11 -10z"/>
<path d="M1555 2040 c-3 -5 -1 -10 4 -10 6 0 11 5 11 10 0 6 -2 10 -4 10 -3 0
-8 -4 -11 -10z"/>
<path d="M1600 2038 c-14 -6 -20 -12 -13 -15 7 -2 23 3 35 11 25 18 15 20 -22
4z"/>
<path d="M850 2023 c0 -13 5 -23 10 -23 13 0 13 11 0 30 -8 12 -10 11 -10 -7z"/>
<path d="M488 2023 c6 -3 9 -9 6 -15 -4 -6 2 -5 15 1 28 15 27 19 -6 18 -16 0
-22 -2 -15 -4z"/>
<path d="M1541 2006 c7 -15 15 -23 17 -16 3 7 -3 19 -13 28 -15 16 -16 15 -4
-12z"/>
<path d="M440 1980 c0 -5 7 -10 15 -10 8 0 15 5 15 10 0 6 -7 10 -15 10 -8 0
-15 -4 -15 -10z"/>
<path d="M2155 1980 c3 -5 11 -10 16 -10 6 0 7 5 4 10 -3 6 -11 10 -16 10 -6
0 -7 -4 -4 -10z"/>
<path d="M890 1961 c0 -6 4 -11 9 -11 5 0 7 -9 4 -20 -4 -14 0 -20 11 -20 10
0 13 -5 9 -16 -4 -12 -2 -15 8 -12 21 7 18 43 -3 42 -10 -1 -15 2 -12 7 3 5
12 9 20 9 8 0 14 5 14 10 0 6 -6 10 -14 10 -8 0 -21 3 -30 6 -9 3 -16 1 -16
-5z"/>
<path d="M420 1945 c-16 -19 0 -19 26 0 16 12 16 14 3 15 -9 0 -22 -7 -29 -15z"/>
<path d="M870 1940 c0 -5 5 -10 10 -10 6 0 10 5 10 10 0 6 -4 10 -10 10 -5 0
-10 -4 -10 -10z"/>
<path d="M2180 1940 c-12 -8 -11 -10 8 -10 12 0 22 5 22 10 0 13 -11 13 -30 0z"/>
<path d="M2290 1913 c0 -6 5 -15 10 -18 8 -5 7 -11 0 -20 -7 -8 -9 -19 -5 -24
3 -7 0 -8 -10 -5 -10 4 -14 2 -10 -8 4 -9 19 -14 39 -14 31 1 33 3 23 23 -6
13 -14 23 -19 23 -5 0 -7 4 -4 9 3 4 -1 17 -9 27 -8 10 -15 14 -15 7z m40 -73
c0 -5 -2 -10 -4 -10 -3 0 -8 5 -11 10 -3 6 -1 10 4 10 6 0 11 -4 11 -10z"/>
<path d="M2110 1880 c0 -5 5 -10 11 -10 5 0 7 5 4 10 -3 6 -8 10 -11 10 -2 0
-4 -4 -4 -10z"/>
<path d="M317 1853 c-4 -3 -7 -16 -6 -27 0 -19 1 -19 10 3 10 24 8 36 -4 24z"/>
<path d="M1875 1822 c-40 -14 -56 -26 -82 -66 -18 -26 -33 -57 -33 -67 0 -10
-13 -47 -30 -82 -29 -63 -30 -65 -15 -114 21 -71 61 -138 108 -184 23 -21 44
-39 49 -39 4 0 5 -8 2 -17 -4 -12 -3 -14 3 -6 11 16 146 -6 139 -22 -2 -7 0
-18 4 -25 7 -11 11 -10 24 3 20 20 21 31 1 23 -8 -3 -15 -1 -15 4 0 13 37 13
45 -1 4 -5 -5 -21 -20 -35 -22 -20 -30 -23 -36 -12 -5 7 -9 15 -9 18 0 3 -11
10 -24 16 -21 10 -28 8 -45 -8 -28 -25 -26 -38 4 -38 14 0 25 -5 25 -11 0 -6
-6 -9 -14 -6 -9 4 -12 0 -9 -13 3 -12 11 -16 26 -12 22 5 22 5 3 -16 -17 -20
-18 -22 -2 -22 10 0 14 -5 10 -12 -4 -7 -3 -8 4 -4 7 4 12 16 12 27 0 18 1 18
18 2 17 -17 17 -18 0 -25 -10 -4 -18 -10 -18 -13 0 -4 5 -3 10 0 6 3 10 2 10
-4 0 -5 -8 -12 -18 -15 -10 -3 -18 -16 -19 -27 -1 -12 -9 -29 -18 -39 -9 -10
-12 -21 -7 -24 5 -3 15 7 22 23 10 26 26 37 55 38 10 1 10 -2 1 -27 -7 -18 40
-44 50 -28 7 12 -16 29 -28 22 -4 -3 -8 0 -8 5 0 6 9 11 20 11 11 0 20 5 20
10 0 6 -4 10 -10 10 -22 0 -8 22 20 33 17 6 30 15 30 20 0 5 -6 7 -14 4 -14
-6 -51 31 -42 41 4 3 13 -3 22 -14 11 -13 17 -15 20 -6 3 6 10 10 15 7 5 -4 6
1 3 9 -3 9 -10 13 -15 10 -5 -3 -9 2 -9 10 0 21 21 31 31 15 8 -12 10 -12 18
0 7 11 9 11 14 0 3 -9 6 -7 6 6 1 17 3 17 11 5 9 -13 10 -13 10 0 0 8 -5 22
-10 30 -8 13 -10 12 -10 -2 0 -30 -34 -14 -35 16 0 22 -21 14 -23 -9 -1 -14
-11 -34 -22 -45 -23 -23 -26 -14 -5 14 10 13 11 25 4 43 -13 36 -12 42 16 49
14 3 25 12 25 19 0 7 7 18 16 26 25 20 61 100 68 151 8 55 -4 106 -45 194 -43
90 -98 149 -165 173 -65 25 -74 25 -139 3z m163 -103 c73 -39 135 -182 118
-273 -5 -24 -22 -54 -46 -80 -38 -40 -40 -41 -107 -41 -84 1 -121 19 -164 81
-43 63 -61 133 -42 165 7 13 12 17 11 9 -5 -37 16 -129 39 -168 28 -49 65 -69
139 -76 56 -6 106 12 128 47 24 36 25 172 1 217 -46 88 -85 119 -165 131 l-45
6 47 2 c30 1 60 -6 86 -20z m-47 -23 c39 -16 73 -49 62 -60 -5 -4 -2 -6 6 -4
8 2 17 -9 22 -25 9 -32 2 -60 -13 -51 -6 4 -7 -9 -3 -33 l6 -38 -21 24 -21 25
6 -30 c5 -22 4 -26 -4 -14 -10 13 -13 13 -22 -3 -7 -12 -17 -15 -36 -11 -18 5
-24 3 -19 -5 4 -6 2 -11 -3 -11 -6 0 -11 5 -11 10 0 6 -4 10 -10 10 -5 0 -10
-7 -10 -15 0 -8 -4 -15 -8 -15 -12 0 -63 55 -65 71 -2 8 -6 19 -9 25 -10 15 8
84 30 113 19 26 57 51 78 51 6 0 27 -6 45 -14z m99 -171 c0 -8 -2 -15 -4 -15
-2 0 -6 7 -10 15 -3 8 -1 15 4 15 6 0 10 -7 10 -15z m-30 -385 c0 -11 -4 -20
-9 -20 -6 0 -9 9 -8 20 1 11 5 20 9 20 4 0 8 -9 8 -20z m20 -60 c0 -5 -4 -10
-10 -10 -5 0 -10 5 -10 10 0 6 5 10 10 10 6 0 10 -4 10 -10z"/>
<path d="M1898 1503 c7 -3 16 -2 19 1 4 3 -2 6 -13 5 -11 0 -14 -3 -6 -6z"/>
<path d="M2278 1798 c-9 -5 -6 -7 9 -5 12 2 25 6 28 8 8 9 -23 6 -37 -3z"/>
<path d="M2232 1761 c5 -22 25 -24 31 -2 3 15 0 19 -14 18 -11 -1 -18 -8 -17
-16z"/>
<path d="M935 1739 c-4 -6 -5 -12 -2 -15 2 -3 7 2 10 11 7 17 1 20 -8 4z"/>
<path d="M270 1670 c0 -5 5 -10 10 -10 6 0 10 5 10 10 0 6 -4 10 -10 10 -5 0
-10 -4 -10 -10z"/>
<path d="M930 1630 c0 -5 5 -10 12 -10 8 0 6 -7 -5 -17 -16 -16 -19 -16 -28
-3 -9 13 -10 13 -6 -2 6 -16 -20 -35 -31 -23 -3 3 0 5 7 5 7 0 9 5 5 11 -5 8
-10 6 -16 -5 -5 -9 -13 -14 -19 -11 -5 4 -9 2 -9 -3 0 -6 7 -13 16 -16 21 -8
65 4 58 15 -3 5 2 9 10 9 9 0 16 -5 16 -11 0 -21 -34 -38 -64 -32 -26 5 -29 4
-24 -15 4 -14 2 -19 -7 -16 -17 7 -28 -25 -15 -41 8 -9 7 -15 -2 -19 -7 -3 -3
-4 10 -2 14 3 22 -1 22 -10 0 -8 7 -29 16 -46 9 -16 11 -27 5 -24 -6 4 -11 3
-11 -3 0 -5 4 -12 10 -16 5 -3 7 -12 3 -20 -7 -20 11 -19 27 0 11 14 14 13 25
-1 9 -13 20 -15 46 -11 19 4 28 3 21 -1 -10 -7 -10 -11 2 -22 13 -10 17 -9 22
4 3 9 12 16 20 16 8 0 14 3 14 8 -1 11 -37 52 -46 52 -4 0 -3 -5 4 -12 16 -16
15 -28 -3 -28 -18 0 -15 42 3 48 7 2 12 10 12 17 0 10 -12 13 -41 11 -22 -2
-37 -1 -32 3 14 10 33 61 23 61 -5 0 -6 7 -3 17 4 10 2 14 -4 10 -5 -4 -21 5
-34 19 -20 21 -20 24 -5 18 12 -4 17 -4 13 2 -3 6 -1 16 4 24 8 12 12 12 16 3
7 -18 23 -16 23 2 0 8 5 15 10 15 6 0 10 5 10 11 0 6 -9 8 -22 3 -13 -3 -20
-3 -16 1 3 4 -1 15 -10 26 -18 21 -32 25 -32 9z m-40 -126 c0 -8 -4 -14 -10
-14 -5 0 -10 9 -10 21 0 11 5 17 10 14 6 -3 10 -13 10 -21z m-32 -26 c10 -10
17 -10 32 0 26 16 29 15 23 -7 -3 -11 -12 -22 -20 -25 -8 -3 -11 -1 -8 4 3 6
-3 10 -13 10 -11 0 -25 7 -32 15 -15 18 1 20 18 3z"/>
<path d="M1102 1591 c-11 -6 -9 -9 6 -13 15 -4 19 -2 15 8 -6 16 -4 16 -21 5z"/>
<path d="M1335 1570 c-3 -5 -1 -10 4 -10 6 0 11 5 11 10 0 6 -2 10 -4 10 -3 0
-8 -4 -11 -10z"/>
<path d="M1153 1515 c-8 -8 -9 -16 -3 -20 5 -3 14 4 20 15 12 23 1 26 -17 5z"/>
<path d="M1000 1455 c0 -18 19 -40 26 -32 4 4 0 15 -9 24 -9 10 -17 13 -17 8z"/>
<path d="M840 1401 c0 -5 5 -13 10 -16 6 -3 10 -2 10 4 0 5 -4 13 -10 16 -5 3
-10 2 -10 -4z"/>
<path d="M1050 1404 c0 -1 7 -14 14 -30 8 -15 13 -31 10 -36 -8 -13 11 -9 25
5 10 10 15 8 25 -6 13 -16 14 -16 19 3 3 13 0 23 -9 27 -11 4 -12 9 -3 19 14
18 -3 19 -33 3 -17 -9 -20 -9 -16 3 4 9 -1 14 -13 14 -11 0 -19 -1 -19 -2z"/>
<path d="M1046 1367 c3 -10 9 -15 12 -12 3 3 0 11 -7 18 -10 9 -11 8 -5 -6z"/>
<path d="M838 1353 c7 -3 16 -2 19 1 4 3 -2 6 -13 5 -11 0 -14 -3 -6 -6z"/>
<path d="M907 1313 c-4 -3 -7 -15 -7 -25 0 -10 -5 -18 -11 -18 -5 0 -8 4 -5 9
3 5 -2 15 -11 22 -10 8 -14 9 -10 2 4 -6 3 -14 -3 -18 -6 -4 -8 -11 -5 -16 4
-5 -3 -9 -14 -9 -12 0 -21 -5 -21 -11 0 -6 6 -9 12 -7 7 3 18 -1 25 -8 15 -15
17 -28 4 -19 -19 11 -22 -16 -4 -40 22 -29 31 -31 49 -7 8 10 13 12 14 5 0 -7
5 -13 11 -13 6 0 9 6 6 14 -3 8 0 17 8 20 9 3 12 0 8 -10 -3 -9 1 -14 14 -14
10 0 24 -5 31 -12 9 -9 12 -9 12 2 0 10 4 8 13 -5 16 -21 39 -12 30 12 -5 13
-2 15 11 10 14 -6 17 -2 14 16 -2 16 -9 21 -23 19 -13 -2 -16 0 -8 6 10 6 9
13 -3 31 -15 21 -17 21 -34 6 -17 -16 -18 -16 -14 2 4 14 -5 24 -36 41 -48 25
-45 24 -53 15z m57 -43 c-7 -7 -19 -7 -35 -1 -23 9 -22 10 11 10 23 1 31 -2
24 -9z"/>
<path d="M2227 1313 c-13 -12 -7 -50 9 -63 12 -11 18 -10 31 3 14 13 14 21 5
42 -11 24 -31 32 -45 18z"/>
<path d="M1822 1278 c5 -15 28 -23 28 -10 0 5 -7 13 -16 16 -10 4 -14 1 -12
-6z"/>
<path d="M2310 1283 c0 -5 5 -15 10 -23 8 -12 10 -11 10 8 0 12 -4 22 -10 22
-5 0 -10 -3 -10 -7z"/>
<path d="M690 1249 c0 -5 5 -7 10 -4 6 3 10 8 10 11 0 2 -4 4 -10 4 -5 0 -10
-5 -10 -11z"/>
<path d="M1068 1238 c2 -9 10 -14 17 -12 7 3 15 -4 18 -15 7 -29 55 -50 68
-30 27 43 -5 81 -65 77 -34 -2 -42 -6 -38 -20z"/>
<path d="M1330 1240 c-19 -19 -20 -24 -7 -43 20 -30 33 -31 57 -7 19 19 20 24
7 43 -20 30 -33 31 -57 7z"/>
<path d="M750 1234 c0 -9 11 -25 24 -35 25 -20 71 -99 57 -99 -4 0 -16 16 -27
35 -10 19 -21 30 -25 24 -9 -16 -57 -18 -69 -4 -8 9 -8 15 0 20 5 3 10 12 10
18 0 7 -4 6 -10 -3 -9 -13 -11 -13 -20 0 -9 13 -11 13 -20 0 -14 -21 -12 -30
3 -24 16 6 22 -52 6 -61 -5 -4 -9 -11 -9 -16 0 -6 4 -8 9 -4 5 3 12 1 16 -5 3
-5 15 -10 25 -10 17 0 18 4 9 26 -5 15 -8 29 -5 31 2 3 10 -11 17 -31 7 -19
16 -33 20 -30 5 2 5 12 2 21 -6 15 -5 15 17 0 30 -21 33 -21 56 1 22 20 29 42
12 42 -6 0 -8 3 -5 7 4 3 -2 12 -13 20 -20 14 -29 40 -10 28 19 -12 10 14 -12
35 -25 23 -37 19 -18 -7 7 -10 1 -5 -14 10 -20 21 -26 24 -26 11z m40 -120 c0
-8 -4 -12 -10 -9 -5 3 -10 13 -10 21 0 8 5 12 10 9 6 -3 10 -13 10 -21z m-70
-24 c0 -5 -2 -10 -4 -10 -3 0 -8 5 -11 10 -3 6 -1 10 4 10 6 0 11 -4 11 -10z"/>
<path d="M1195 1241 c-3 -5 -1 -12 5 -16 6 -4 7 -11 4 -17 -4 -7 -2 -8 5 -4 8
6 9 12 2 20 -6 7 -8 16 -4 19 3 4 4 7 0 7 -3 0 -8 -4 -12 -9z"/>
<path d="M607 1234 c-3 -3 -3 -13 0 -21 5 -12 7 -12 14 -1 15 23 4 40 -14 22z"/>
<path d="M1935 1230 c3 -5 8 -10 11 -10 2 0 4 5 4 10 0 6 -5 10 -11 10 -5 0
-7 -4 -4 -10z"/>
<path d="M1884 1215 c-4 -9 0 -23 8 -32 14 -13 16 -12 16 11 0 31 -16 44 -24
21z"/>
<path d="M2310 1220 c0 -5 5 -10 10 -10 6 0 10 5 10 10 0 6 -4 10 -10 10 -5 0
-10 -4 -10 -10z"/>
<path d="M1225 1199 c-9 -14 0 -22 18 -17 13 2 13 5 2 15 -10 9 -16 9 -20 2z"/>
<path d="M638 1193 c7 -3 16 -2 19 1 4 3 -2 6 -13 5 -11 0 -14 -3 -6 -6z"/>
<path d="M2221 1164 c0 -11 3 -14 6 -6 3 7 2 16 -1 19 -3 4 -6 -2 -5 -13z"/>
<path d="M620 1161 c0 -13 26 -32 33 -24 8 7 -11 33 -24 33 -5 0 -9 -4 -9 -9z"/>
<path d="M1240 1130 c0 -11 7 -20 15 -20 13 0 14 4 5 20 -6 11 -13 20 -15 20
-3 0 -5 -9 -5 -20z"/>
<path d="M651 1121 c-9 -6 -10 -11 -2 -15 6 -4 11 -2 11 4 0 6 5 8 10 5 6 -3
10 -1 10 4 0 13 -10 14 -29 2z"/>
<path d="M1190 1100 c0 -5 5 -10 10 -10 6 0 10 5 10 10 0 6 -4 10 -10 10 -5 0
-10 -4 -10 -10z"/>
<path d="M2167 1019 c-18 -20 -17 -20 5 -17 12 2 24 11 26 21 5 23 -10 22 -31
-4z"/>
<path d="M2000 981 c0 -6 4 -12 8 -15 5 -3 9 1 9 9 0 8 -4 15 -9 15 -4 0 -8
-4 -8 -9z"/>
<path d="M1885 970 c-3 -5 -1 -10 4 -10 6 0 11 5 11 10 0 6 -2 10 -4 10 -3 0
-8 -4 -11 -10z"/>
<path d="M469 930 c-19 -13 -8 -18 21 -10 19 4 21 7 9 12 -9 3 -22 2 -30 -2z"/>
<path d="M2105 920 c-3 -5 -1 -10 4 -10 6 0 11 5 11 10 0 6 -2 10 -4 10 -3 0
-8 -4 -11 -10z"/>
<path d="M1940 903 c0 -5 6 -15 12 -21 10 -10 10 -15 -2 -23 -13 -9 -12 -10 3
-5 11 4 17 0 17 -11 0 -13 3 -14 11 -6 9 9 5 20 -15 43 -14 17 -26 28 -26 23z"/>
</g>
</svg>
